<?xml version="1.0" encoding="utf-8"?>
<!-- Generator: Adobe Illustrator 16.0.0, SVG Export Plug-In . SVG Version: 6.00 Build 0)  -->
<!DOCTYPE svg PUBLIC "-//W3C//DTD SVG 1.1//EN" "http://www.w3.org/Graphics/SVG/1.1/DTD/svg11.dtd">
<svg version="1.1" id="Layer_1" xmlns="http://www.w3.org/2000/svg" xmlns:xlink="http://www.w3.org/1999/xlink" x="0px" y="0px"
	 width="500px" height="300px" viewBox="0 0 500 300" enable-background="new 0 0 500 300" xml:space="preserve">
<g>
	<g>
		<g>
			<path fill="#5084DA" d="M398.65,156.731c0,0,16.712-1.526,32.55-8.014c0.501-0.205,0.805,3.198,0.805,3.198
				s2.331-4.551,3.142-4.933c8.572-4.043,16.434-9.676,20.647-17.475c0,0,2.076,47.822-59.397,58.443L398.65,156.731z"/>
		</g>
		<g>
			<path fill="#5084DA" d="M419.094,211.284c0,0,20.288,10.754,59.961,12.623c0,0-26.989,24.63-88.743,16.15l2.025-28.051
				L419.094,211.284z"/>
		</g>
		<g>
			<path fill="#5193F4" d="M390.712,183.981c0,0,9.157-5.851,24.023-10.902c0.593-0.201,1.847,3.303,1.847,3.303
				s2.031-4.563,3.104-4.885c17.759-5.318,42.06-8.79,68.231-1.402c0,0-7.929,11.045-24.158,23.137
				c-0.691,0.516-5.275,0.108-5.275,0.108s1.925,2.319,1.292,2.759c-15.421,10.724-37.285,21.648-65.843,25.975L390.712,183.981z"/>
		</g>
		<g opacity="0.4">
			<g>
				<path fill="#5084DA" d="M487.917,170.095c-7.651,4.937-15.699,9.246-23.89,13.234c-8.189,4.001-16.609,7.518-25.136,10.74
					c-4.257,1.634-8.609,2.999-12.925,4.463l-6.551,1.962c-1.093,0.32-2.18,0.665-3.278,0.966l-3.316,0.832
					c-8.802,2.384-17.794,3.983-26.798,5.27l6.684-1.377l3.342-0.675c1.109-0.245,2.208-0.538,3.313-0.804l6.628-1.58l6.566-1.816
					c4.388-1.168,8.697-2.608,13.041-3.924c4.287-1.495,8.606-2.896,12.833-4.556c8.532-3.105,16.911-6.627,25.165-10.418
					c4.132-1.887,8.226-3.859,12.281-5.91C479.941,174.469,483.955,172.334,487.917,170.095z"/>
			</g>
			<g>
				<path fill="#5084DA" d="M432.42,195.733c1.693-1.583,3.336-3.194,4.977-4.796c1.625-1.619,3.229-3.25,4.771-4.936
					c1.559-1.671,3.017-3.425,4.453-5.201c1.403-1.803,2.728-3.663,3.995-5.611c-0.804,2.174-1.865,4.272-3.157,6.215
					c-1.295,1.939-2.745,3.774-4.317,5.492C439.965,190.294,436.422,193.369,432.42,195.733z"/>
			</g>
			<g>
				<path fill="#5084DA" d="M407.849,203.106c1.836-1.199,3.516-2.563,5.122-3.99c1.594-1.439,3.1-2.968,4.438-4.634
					c1.363-1.643,2.607-3.39,3.682-5.246c1.123-1.835,2.021-3.796,2.944-5.793c-0.43,2.143-1.028,4.299-2.032,6.278
					c-0.923,2.021-2.174,3.881-3.574,5.603c-1.413,1.717-3.024,3.269-4.805,4.588C411.858,201.246,409.919,202.363,407.849,203.106z
					"/>
			</g>
			<g>
				<path fill="#5084DA" d="M432.42,195.733c3.193,0.126,6.3,0.174,9.403-0.047c1.552-0.081,3.094-0.264,4.635-0.487
					c1.552-0.2,3.068-0.558,4.653-0.844c-1.384,0.8-2.878,1.454-4.438,1.854c-1.553,0.441-3.155,0.69-4.764,0.797
					c-1.608,0.092-3.225,0.074-4.819-0.138C435.497,196.669,433.913,196.333,432.42,195.733z"/>
			</g>
			<g>
				<path fill="#5084DA" d="M408.348,203.142c1.909,0.229,3.803,0.412,5.687,0.607c1.886,0.172,3.766,0.33,5.647,0.411
					c1.881,0.094,3.758,0.083,5.64,0.033c1.879-0.1,3.752-0.271,5.659-0.565c-1.755,0.787-3.643,1.318-5.563,1.594
					c-1.921,0.265-3.864,0.333-5.796,0.26C415.768,205.265,411.927,204.583,408.348,203.142z"/>
			</g>
		</g>
		<g opacity="0.2278">
			<g>
				<path opacity="0.5" fill="#605ACA" d="M449.479,141.935c-1.637,4.486-4.523,8.439-7.797,11.919
					c-3.295,3.494-7.183,6.386-11.304,8.832l-3.171,1.696c-1.053,0.575-2.182,0.99-3.271,1.482c-2.177,1.007-4.47,1.709-6.742,2.442
					c-1.125,0.406-2.305,0.621-3.461,0.913l-3.478,0.827c-2.355,0.369-4.712,0.714-7.065,1.01c2.308-0.593,4.629-1.062,6.92-1.643
					l3.401-1c1.128-0.348,2.279-0.617,3.369-1.076c2.193-0.865,4.448-1.56,6.552-2.621c1.059-0.51,2.17-0.912,3.192-1.489
					l3.092-1.687c4.048-2.368,7.854-5.152,11.246-8.4c0.844-0.817,1.695-1.63,2.453-2.529c0.388-0.441,0.793-0.87,1.167-1.323
					l1.09-1.389C447.123,146.045,448.431,144.066,449.479,141.935z"/>
			</g>
		</g>
		<g>
			<g>
				<path fill="#4CA1FF" d="M466.095,227.284c-2.779,0.534-5.593,0.863-8.405,1.193c-2.817,0.273-5.643,0.478-8.474,0.622
					c-5.661,0.276-11.341,0.147-17.004-0.241c-2.828-0.24-5.652-0.564-8.457-1.016c-2.807-0.426-5.606-0.941-8.354-1.677
					c-5.495-1.424-10.895-3.409-15.731-6.366c2.552,1.221,5.159,2.296,7.84,3.154c2.666,0.895,5.383,1.627,8.128,2.222
					c5.488,1.201,11.071,1.952,16.678,2.364c5.604,0.495,11.238,0.604,16.872,0.546
					C454.822,228.018,460.461,227.767,466.095,227.284z"/>
			</g>
			<g>
				<path fill="#4CA1FF" d="M439.504,237.195c-3.693,0.294-7.469-0.506-10.859-2.146c-1.681-0.858-3.237-1.989-4.539-3.363
					c-1.321-1.368-2.215-3.086-2.795-4.827c1.053,1.529,2.164,2.927,3.516,4.087c1.359,1.136,2.821,2.133,4.414,2.922
					c1.587,0.797,3.26,1.431,4.975,1.979C435.937,236.367,437.691,236.847,439.504,237.195z"/>
			</g>
			<g>
				<path fill="#4CA1FF" d="M424.714,238.075c-3.669-0.514-7.182-2.11-10.137-4.447c-1.455-1.202-2.729-2.643-3.703-4.266
					c-0.994-1.622-1.494-3.492-1.685-5.318c0.697,1.722,1.48,3.326,2.548,4.751c1.081,1.403,2.294,2.693,3.677,3.809
					c1.377,1.121,2.873,2.103,4.429,3.009C421.411,236.493,423.021,237.342,424.714,238.075z"/>
			</g>
		</g>
	</g>
	<g>
		<path fill="#52D2BC" d="M262.582,278.503c-6.174-7.113-15.564-11.328-24.985-11.204c-6.955,0.091-13.785,2.403-20.725,1.978
			c-7.291-0.438-14.343-4.052-18.955-9.725s-6.721-13.304-5.668-20.538c0.804-5.499,3.68-11.021,8.66-13.481
			c2.713-1.338,5.85-1.672,8.865-1.401c2.782,0.25,5.446,1.005,7.963,2.13c5.758,2.556,10.766,7.06,14.769,12.032
			c3.634,4.522,11.934,11.175,17.545,15.47c3.29,2.508,5.662,4.205,5.662,4.205C259.668,261.625,259.874,273.843,262.582,278.503z"
			/>
		<path fill="none" stroke="#00AD9F" stroke-linecap="round" stroke-linejoin="round" stroke-miterlimit="10" d="M201.637,240.979
			c17.48,4.979,36.788,12.035,50.437,24.038"/>
	</g>
	<g>
		<path fill="#5193F4" d="M314.288,238.519c-0.258,2.904-0.854,5.873-2.263,8.512c-0.975,1.818-2.293,3.41-3.784,4.823
			c-0.769,0.732-1.591,1.415-2.425,2.054c-3.248,2.475-6.86,4.368-10.611,5.565c-5.466,1.74-11.318,2.063-16.342,5.144
			c-2.305,1.411-4.325,3.377-5.877,5.667c-0.973,1.424-1.757,2.975-2.315,4.594l-0.021-4.896c0.535-5.42,1.084-10.94,3.104-16.121
			c1.303-3.356,3.187-6.485,5.246-9.454c3.291-4.752,7.073-9.18,11.438-12.86c3.528-2.977,7.57-5.504,11.885-6.146
			c4.308-0.646,8.894,0.948,10.867,4.745C314.458,232.584,314.55,235.606,314.288,238.519z"/>
		<path opacity="0.31" fill="none" stroke="#0B43A4" stroke-linecap="round" stroke-linejoin="round" stroke-miterlimit="10" d="
			M273.684,265.407c3.074-7.274,8.383-13.683,14.859-17.936c4.035-2.649,8.459-4.46,12.579-6.943
			c4.119-2.483,8.087-5.858,10.019-10.385"/>
	</g>
	<g>
		<path fill="#52D2BC" d="M266.958,269.863c7.689-7.628,18.596-11.123,29.317-12.661c8.943-1.282,18.336-1.33,26.7,2.084
			c2.621,1.069,5.205,2.556,6.755,4.924s1.77,5.787-0.123,7.892c-1.597,1.774-4.19,2.207-6.577,2.293
			c-7.854,0.282-15.537-2.001-23.229-3.613c-13.221-2.771-27.618-3.44-39.637,2.727"/>
		<path fill="none" stroke="#00AD9F" stroke-linecap="round" stroke-linejoin="round" stroke-miterlimit="10" d="M276.545,265.852
			c15.914-6.712,38.9-4.55,48.926,2.388"/>
	</g>
	<g>
		<path fill="#4A84D8" d="M88.313,187.795c-7.191-3.455-10.638-12.662-16.546-14.641c-7.322-2.531-9.375,5.648-21.214,3.626
			c-9.936-1.697-12.955-12.872-29.565-9.415c-5.072,1.056-8.439,5.344-6.534,10.486c1.425,5.117,8.472,8.355,12.666,10.969
			c3.719,2.1,7.011,3.226,9.216,7.131c0.023,0.041,0.046,0.085,0.065,0.127c1.483,3.174,0.891,6.004,4.354,8.326
			c8.113,5.935,18.217-3.489,27.446-3.214c6.509,0.195,6.327,6.954,14.153,8.911c7.75,1.938,5.208-5.001,21.468,1.301
			c0.584,0.227,1.244-0.066,1.468-0.651l0,0c0.157-0.408,0.063-0.873-0.239-1.188C93.669,197.65,98.898,192.882,88.313,187.795z"/>
		<path fill="#00AD9F" d="M88.313,187.795c-7.191-3.455-10.638-12.662-16.546-14.641c-7.322-2.531-9.375,5.648-21.214,3.626
			c-9.936-1.697-12.955-12.872-29.565-9.415c-5.072,1.056-8.439,5.344-6.534,10.486c1.425,5.117,8.472,8.355,12.666,10.969
			c3.719,2.1,7.011,3.226,9.216,7.131c0.023,0.041,0.046,0.085,0.065,0.127c1.483,3.174,0.891,6.004,4.354,8.326
			c8.113,5.935,18.217-3.489,27.446-3.214c6.509,0.195,6.327,6.954,14.153,8.911c7.75,1.938,5.208-5.001,21.468,1.301
			c0.584,0.227,1.244-0.066,1.468-0.651l0,0c0.157-0.408,0.063-0.873-0.239-1.188C93.669,197.65,98.898,192.882,88.313,187.795z"/>
		<g opacity="0.5">
			<g>
				<path fill="#4CA1FF" d="M97.516,203.32c-6.153-3.18-9.724-10.098-16.274-12.602c-3.434-1.313-6.252-0.625-9.773-0.18
					c-4.087,0.516-6.162-2.799-9.524-4.226c-3.255-1.382-6.375,0.379-9.735-0.068c-3.609-0.481-6.721-3.275-9.474-5.438
					c-5.813-4.566-12.366-7.182-19.823-7.16c-0.374,0.001-0.207,0.979,0.213,0.977c8.024-0.022,14.527,3.19,20.711,8.038
					c2.367,1.856,4.805,3.59,7.731,4.413c3.309,0.932,6.545-1.075,9.815-0.047c2.842,0.894,4.752,3.539,7.678,4.374
					c1.377,0.394,2.96,0.092,4.33-0.137c2.211-0.369,4.227-0.617,6.435-0.082c7.264,1.76,11.142,9.716,17.583,13.043
					C97.865,204.463,97.843,203.489,97.516,203.32L97.516,203.32z"/>
			</g>
		</g>
	</g>
	<g>
		<path fill="#7EE8D4" d="M158.318,236.146c-23.658,2.501-27.442,4.544-33.114,2.093c-7.229-3.125-14.825-2.35-22.111-5.336
			c-7.286-2.987-15.2-5.269-22.972-4.007c-2.458,0.399-5.184,1.397-5.527,4.28c-0.137,1.156,0.235,2.326,0.914,3.271
			c1.712,2.389,4.509,3.19,7.185,3.928l8.944,2.467c2.909,0.803,2.723,5.087-0.264,5.516c-0.025,0.004-0.05,0.007-0.075,0.011
			c-2.505,0.34-5.042-0.157-7.511-0.703c-5.371-1.189-10.752-2.636-16.253-2.644c-6.657-0.009-13.714,2.395-17.006,8.602
			c-1.167,2.201-1.605,4.758-1.19,7.214c1.16,6.865,7.581,9.156,13.272,8.643c4.004-0.361,7.789-1.908,11.57-3.276
			c9.235-3.341,17.137,0.344,26.954,0.6C128.225,267.508,158.318,236.146,158.318,236.146z"/>
		<path fill="none" stroke="#00AD9F" stroke-linecap="round" stroke-linejoin="round" stroke-miterlimit="10" d="M56.688,257.797
			c16.845-1.924,33.814-3.873,49.976-8.996c4.74-1.502,10.847-1.918,24.227-11.793"/>
	</g>
	<g>
		<path fill="#7EE8D4" d="M83.975,160.105c0.561,0.438,1.148,0.798,1.761,1.091c2.891,1.426,6.202,1.623,8.502,4.218
			c1.536,1.633,2.368,3.821,3.515,5.765c0.233,0.431,0.498,0.84,0.787,1.231c3.556,4.877,7.055,5.443,10.799,5.359
			c1.536-0.037,3.125-0.184,4.76-0.183c2.5-0.003,5.162,0.32,8.027,1.895c1.809,0.975,3.7,2.451,5.699,4.638
			c0.359,0.39,1.003,0.424,1.513,0.099c0.456-0.299,0.688-0.831,0.588-1.31c-1.001-4.502-2.959-7.457-5.316-9.677
			c-6.626-6.271-16.409-6.769-17.002-19.714c-0.125-2.772,0.464-4.739,0.021-6.715c-0.228-0.995-0.719-1.995-1.695-3.105
			c-2.004-2.159-4.885-3.114-7.452-4.84c-6.95-4.957-3.638-13.069-4.254-20.787c-0.414-6.3-6.079-10.401-10.711-13.969
			c-5.791-4.262-5.778-11.949-9.686-17.662c-3.9-5.718-13.611-8.021-18.777-0.338c-5.485,7.669-2.473,17.258-0.896,25.037
			c0.412,2.033,1.129,3.839,2.076,5.482c2.891,5.049,7.854,8.646,12.141,12.922c2.643,2.625,4.842,5.601,6.382,8.959
			c0.899,1.963,1.575,4.048,1.982,6.276c0.092,0.519,0.193,1.031,0.293,1.545C78.032,151.718,79.212,156.522,83.975,160.105z"/>
		<g opacity="0.5">
			<g>
				<path fill="#4CA1FF" d="M59.333,86.212c0.184,4.668,0.447,9.348,2.117,13.759c1.539,4.061,4.815,6.8,8.067,9.482
					c1.9,1.568,3.727,3.183,5.136,5.221c1.518,2.194,1.647,4.914,2.686,7.312c0.779,1.799,2.515,2.719,4.117,3.666
					c2.358,1.394,3.816,3.646,4.96,6.066c1.584,3.351,2.478,7.125,4.74,10.126c1.661,2.205,4.337,3.541,5.394,6.156
					c1,2.477,0.706,5.48,1.331,8.082c2.39,9.941,12.75,14.946,21.14,18.897c0.467,0.221,0.44-0.75,0.107-0.906
					c-5.045-2.377-10.129-4.791-14.367-8.484c-4.304-3.751-6.405-8.424-6.959-14.029c-0.154-1.563-0.33-3.31-1.078-4.721
					c-0.995-1.878-2.602-2.873-4.1-4.323c-3.162-3.063-4.153-7.891-5.981-11.756c-1.635-3.458-3.923-5.198-7.059-7.22
					c-2.512-1.62-2.525-5.027-3.523-7.574c-0.604-1.541-1.666-2.878-2.763-4.092c-2.813-3.114-6.514-5.258-9.198-8.518
					c-3.812-4.627-3.931-11.315-4.154-17.005C59.925,85.842,59.307,85.545,59.333,86.212L59.333,86.212z"/>
			</g>
		</g>
		<path opacity="0.37" fill="#5A4FD1" d="M114.099,177.587c2.5-0.003,5.162,0.32,8.027,1.895c0.255-3.972,1.591-4.797,2.483-6.25
			c-6.626-6.271-16.409-6.769-17.002-19.714c-0.125-2.772,0.464-4.739,0.021-6.715c-1.977,4.151-5.524,5.003-5.245,9.24
			c0.241,4.371,5.832,8.418,6.834,13.933C110.042,174.53,111.721,175.691,114.099,177.587z"/>
	</g>
	<g>
		<path fill="#5084DA" d="M178.22,242.825c-4.47-1.765-10.438-2.49-13.304,1.368c-2.399,3.229-1.157,7.807,0.5,11.473
			c1.399,3.096,3.176,6.242,6.127,7.925c2.016,1.149,4.378,1.495,6.682,1.769c6.426,0.765,12.899,1.139,19.371,1.121
			c7.501-0.021,16.587,3.042,22.793,7.719C212.424,259.396,193.262,248.766,178.22,242.825z"/>
		<path opacity="0.31" fill="none" stroke="#0B43A4" stroke-linecap="round" stroke-linejoin="round" stroke-miterlimit="10" d="
			M170.378,252.449c5.689,0.242,11.43,0.642,16.891,2.257c5.584,1.651,27.064,11.509,30.422,15.704"/>
	</g>
	<g>
		<path fill="#7EE8D4" d="M396.611,132.736c-0.138,0.667-0.195,1.323-0.186,1.973c0.01,3.083,1.249,6.004,0.005,9.079
			c-0.745,2.01-2.266,3.655-3.442,5.465c-0.27,0.383-0.507,0.784-0.72,1.198c-2.665,5.122-1.66,8.361,0.005,11.532
			c0.686,1.301,1.487,2.6,2.182,4c1.067,2.141,1.922,4.559,1.793,7.684c-0.064,1.965-0.524,4.213-1.547,6.856
			c-0.182,0.473,0.063,1.039,0.559,1.337c0.45,0.265,1.005,0.235,1.372-0.054c3.431-2.773,5.129-5.708,6.028-8.672
			c2.551-8.347-1.186-16.939,9.652-22.956c2.322-1.287,4.258-1.62,5.762-2.84c0.756-0.619,1.402-1.466,1.938-2.774
			c0.998-2.636,0.59-5.51,0.976-8.444c1.289-8.064,9.648-8.678,15.998-12.492c5.222-3.036,6.324-9.634,7.408-15.122
			c1.187-6.775,7.778-10.036,11.009-15.815c3.239-5.775,1.079-15.074-7.702-16.23c-8.904-1.435-15.837,5.227-21.83,9.889
			c-1.566,1.218-2.808,2.601-3.813,4.112c-3.096,4.625-4.064,10.408-5.903,15.901c-1.125,3.382-2.737,6.532-4.959,9.28
			c-1.299,1.606-2.798,3.072-4.534,4.369c-0.404,0.3-0.802,0.604-1.198,0.909C401.268,124.076,397.653,127.131,396.611,132.736z"/>
		<g opacity="0.5">
			<g>
				<path fill="#4CA1FF" d="M449.32,80.014c-3.795,2.075-7.896,4.23-10.746,7.575c-3.006,3.526-3.839,7.703-4.911,12.089
					c-0.555,2.271-1.313,4.437-2.645,6.376c-1.212,1.765-3.167,2.885-4.543,4.515c-1.329,1.573-1.188,3.827-1.394,5.738
					c-0.267,2.49-1.851,4.669-3.382,6.55c-2.381,2.924-5.185,5.424-6.762,8.92c-1.095,2.428-0.939,4.766-3.022,6.739
					c-1.771,1.677-4.131,2.661-5.999,4.237c-7.416,6.255-7.211,17.334-7.029,26.121c0.011,0.512,0.627,0.805,0.613,0.139
					c-0.115-5.572-0.207-11.187,1.386-16.584c1.491-5.056,4.657-8.577,9.039-11.322c1.461-0.916,2.766-1.897,3.775-3.304
					c1.1-1.532,1.128-3.696,1.795-5.423c1.475-3.813,5.037-6.604,7.49-9.762c0.938-1.207,1.668-2.528,2.216-3.951
					c0.926-2.404,0.246-5.091,1.748-7.316c1.179-1.747,3.228-2.841,4.543-4.515c1.169-1.488,1.817-3.38,2.356-5.165
					c1.266-4.193,1.663-8.466,4.259-12.146c2.777-3.938,7.45-6.348,11.569-8.601C450.007,80.743,449.72,79.796,449.32,80.014
					L449.32,80.014z"/>
			</g>
		</g>
	</g>
	<g>
		<path fill="#4A84D8" d="M370.771,256.18c6.812,3.842,9.59,13.067,15.24,15.382c6.999,2.945,9.532-4.921,20.98-2.183
			c9.607,2.298,11.842,13.421,28.309,11.107c5.028-0.706,8.596-4.684,7.064-9.834c-1.065-5.098-7.748-8.717-11.683-11.542
			c-3.502-2.292-6.649-3.605-8.555-7.565c-0.02-0.042-0.039-0.086-0.056-0.129c-1.246-3.199-0.484-5.929-3.723-8.422
			c-7.553-6.325-18.04,2.241-27.048,1.378c-6.353-0.608-5.74-7.207-13.269-9.623c-7.455-2.394-5.415,4.556-20.91-2.652
			c-0.557-0.259-1.221-0.015-1.478,0.542l0,0c-0.18,0.39-0.118,0.85,0.157,1.178C366.166,246.197,360.746,250.525,370.771,256.18z"
			/>
		<path fill="#00AD9F" d="M370.771,256.18c6.812,3.842,9.59,13.067,15.24,15.382c6.999,2.945,9.532-4.921,20.98-2.183
			c9.607,2.298,11.842,13.421,28.309,11.107c5.028-0.706,8.596-4.684,7.064-9.834c-1.065-5.098-7.748-8.717-11.683-11.542
			c-3.502-2.292-6.649-3.605-8.555-7.565c-0.02-0.042-0.039-0.086-0.056-0.129c-1.246-3.199-0.484-5.929-3.723-8.422
			c-7.553-6.325-18.04,2.241-27.048,1.378c-6.353-0.608-5.74-7.207-13.269-9.623c-7.455-2.394-5.415,4.556-20.91-2.652
			c-0.557-0.259-1.221-0.015-1.478,0.542l0,0c-0.18,0.39-0.118,0.85,0.157,1.178C366.166,246.197,360.746,250.525,370.771,256.18z"
			/>
		<g opacity="0.5">
			<g>
				<path fill="#4CA1FF" d="M362.797,240.419c6.049,3.66,9.182,10.644,15.724,13.65c2.933,1.348,5.854,0.699,8.934,0.514
					c4.079-0.245,6.26,3.354,9.545,5.01c2.955,1.49,6.533-0.258,9.681,0.619c3.414,0.95,6.17,3.9,8.727,6.18
					c5.184,4.619,11.408,7.393,18.367,7.831c0.455,0.029,0.322-0.951-0.051-0.975c-7.849-0.496-13.993-3.992-19.738-9.14
					c-2.047-1.834-4.154-3.554-6.701-4.641c-3.543-1.511-7.337,0.65-10.761-1.076c-2.454-1.238-4.068-3.562-6.723-4.513
					c-1.321-0.473-2.894-0.273-4.246-0.138c-2.186,0.219-4.172,0.325-6.296-0.339c-6.975-2.182-10.288-10.221-16.354-13.89
					C362.471,239.25,362.482,240.229,362.797,240.419L362.797,240.419z"/>
			</g>
		</g>
	</g>
	<g>
		<g>
			<path fill="#5084DA" d="M127.46,237.526c0,0-29.695-6.496-52.532-4.052c-0.722,0.077,0.158-4.423,0.158-4.423
				s-4.705,4.994-5.892,5.185c-12.559,2.007-24.796,6.331-33.142,14.809c0,0,15.192-62.413,98.395-53.134L127.46,237.526z"/>
		</g>
		<g>
			<path fill="#5193F4" d="M144.722,240.874c0,0-13.304-5.972-29.912-18.94c-0.663-0.517,2.348-4.502,2.348-4.502
				s-6.616,1.078-7.765,0.111c-19.036-16.017-40.813-40.735-51.778-75.542c0,0,18.23,0.771,43.742,10.088
				c1.086,0.396,4.003,5.841,4.003,5.841s1.187-3.867,2.145-3.48c23.382,9.417,51.729,25.915,77.598,54.782L144.722,240.874z"/>
		</g>
		<g opacity="0.4">
			<g>
				<path fill="#5084DA" d="M57.614,142.85c11.171,4.954,21.928,10.814,32.43,17.072c10.516,6.247,20.659,13.108,30.549,20.307
					c4.966,3.575,9.7,7.456,14.519,11.222l7.021,5.908c1.164,0.991,2.35,1.957,3.496,2.969l3.375,3.109
					c9.15,8.124,17.563,17.039,25.632,26.197l-6.464-6.488l-3.216-3.253c-1.091-1.064-2.229-2.083-3.34-3.127l-6.649-6.276
					l-6.87-6.031c-4.539-4.065-9.327-7.842-13.999-11.749c-4.832-3.711-9.582-7.528-14.555-11.051
					c-9.764-7.289-19.88-14.102-30.208-20.577c-5.158-3.248-10.384-6.39-15.669-9.433C68.392,148.581,63.043,145.647,57.614,142.85z
					"/>
			</g>
			<g>
				<path fill="#5084DA" d="M127.223,186.268c-3.023-0.736-6.04-1.394-9.045-2.057c-3.013-0.632-6.023-1.232-9.049-1.722
					c-3.022-0.521-6.063-0.866-9.113-1.171c-3.056-0.249-6.118-0.366-9.237-0.356c3.031-0.696,6.168-1.049,9.298-1.028
					c3.129,0.025,6.255,0.305,9.34,0.804C115.567,181.802,121.625,183.516,127.223,186.268z"/>
			</g>
			<g>
				<path fill="#5084DA" d="M98.008,166.261c-2.153-0.129-4.292-0.205-6.424-0.286c-2.133-0.06-4.261-0.098-6.386-0.059
					c-2.126,0.018-4.243,0.157-6.361,0.326c-2.116,0.207-4.219,0.505-6.346,0.896c1.982-0.849,4.079-1.477,6.217-1.849
					c2.138-0.369,4.305-0.564,6.471-0.604C89.505,164.653,93.849,165.074,98.008,166.261z"/>
			</g>
			<g>
				<path fill="#5084DA" d="M153.576,208.418c-2.695-1.178-5.463-2.06-8.246-2.813c-2.789-0.729-5.612-1.295-8.467-1.57
					c-2.846-0.322-5.722-0.433-8.596-0.272c-2.885,0.09-5.746,0.526-8.667,0.958c2.721-1.094,5.581-2.009,8.541-2.338
					c2.946-0.451,5.954-0.417,8.918-0.112c2.965,0.323,5.893,0.99,8.684,2.018C148.538,205.287,151.219,206.642,153.576,208.418z"/>
			</g>
			<g>
				<path fill="#5084DA" d="M127.223,186.268c-2.209-3.677-4.441-7.198-6.972-10.519c-1.232-1.683-2.572-3.278-3.958-4.843
					c-1.366-1.595-2.883-3.033-4.371-4.603c1.916,0.966,3.75,2.16,5.347,3.618c1.638,1.417,3.096,3.033,4.399,4.759
					c1.287,1.738,2.456,3.565,3.392,5.511C126.008,182.125,126.797,184.15,127.223,186.268z"/>
			</g>
			<g>
				<path fill="#5084DA" d="M153.25,207.832c-1.148-2.312-2.337-4.57-3.503-6.828c-1.195-2.244-2.401-4.47-3.694-6.641
					c-1.279-2.18-2.672-4.278-4.113-6.354c-1.494-2.035-3.065-4.012-4.798-5.936c2.174,1.391,4.16,3.119,5.882,5.071
					c1.71,1.961,3.216,4.092,4.556,6.313C150.172,197.943,152.233,202.755,153.25,207.832z"/>
			</g>
		</g>
		<g opacity="0.5">
			<g>
				<path fill="#4CA1FF" d="M48.834,235.389c3.785-5.171,8.983-9.188,14.502-12.45c5.552-3.271,11.645-5.546,17.869-7.16
					l4.722-1.001c1.571-0.349,3.181-0.461,4.771-0.688c3.182-0.484,6.398-0.533,9.602-0.629c1.602-0.103,3.203,0.061,4.802,0.116
					l4.792,0.233c3.174,0.403,6.34,0.841,9.483,1.339c-3.195-0.099-6.363-0.361-9.533-0.469l-4.758,0.018
					c-1.583,0.026-3.168-0.056-4.744,0.129c-3.151,0.295-6.316,0.349-9.425,0.931c-1.555,0.261-3.137,0.365-4.671,0.727
					l-4.614,1.018c-6.103,1.54-12.047,3.707-17.634,6.626c-1.393,0.737-2.793,1.467-4.107,2.343
					c-0.664,0.424-1.347,0.825-1.998,1.271l-1.924,1.382C53.407,230.971,50.982,233.031,48.834,235.389z"/>
			</g>
		</g>
		<g opacity="0.5">
			<g>
				<path fill="#4CA1FF" d="M100.192,214.256c-1.73,2.759-3.416,5.367-4.825,8.126c-0.723,1.368-1.308,2.786-1.864,4.229
					c-0.531,1.458-0.897,2.954-1.271,4.559c-0.766-3.219,0.073-6.683,1.555-9.596c0.776-1.456,1.68-2.836,2.754-4.071
					C97.608,216.267,98.799,215.129,100.192,214.256z"/>
			</g>
		</g>
	</g>
	<g>
		<rect x="231.316" y="234.298" fill="#0056EC" width="49.178" height="33.821"/>
		<rect x="231.316" y="234.298" opacity="0.5" fill="#605ACA" width="49.178" height="12.258"/>
		<path fill="#0056EC" d="M305.815,267.587h-99.82c-3.152,0-5.708,2.556-5.708,5.708s2.556,5.708,5.708,5.708h99.82
			c3.152,0,5.708-2.556,5.708-5.708l0,0C311.523,270.143,308.968,267.587,305.815,267.587z"/>
		<path opacity="0.5" fill="#605ACA" d="M311.525,273.299c0,3.146-2.557,5.703-5.711,5.703h-99.818c-3.154,0-5.71-2.557-5.71-5.703
			c0-0.479,0.055-0.944,0.181-1.385c0.606,2.486,2.855,4.326,5.53,4.326h99.818c2.675,0,4.924-1.84,5.53-4.326
			C311.47,272.354,311.525,272.819,311.525,273.299z"/>
		<g>
			<g>
				<g>
					<path fill="#FFFFFF" d="M102.034,239.015c-1.93,0-3.5-1.57-3.5-3.5V32.286c0-1.93,1.57-3.5,3.5-3.5h307.744
						c1.93,0,3.5,1.57,3.5,3.5v203.229c0,1.93-1.57,3.5-3.5,3.5H102.034z"/>
					<path fill="#0056EC" d="M409.777,31.286c0.551,0,1,0.449,1,1v203.229c0,0.552-0.449,1-1,1H102.034c-0.551,0-1-0.448-1-1V32.286
						c0-0.551,0.449-1,1-1H409.777 M409.777,26.286H102.034c-3.313,0-6,2.687-6,6v203.229c0,3.313,2.687,6,6,6h307.744
						c3.313,0,6-2.687,6-6V32.286C415.777,28.973,413.091,26.286,409.777,26.286L409.777,26.286z"/>
				</g>
			</g>
			<g>
				<path fill="#0056EC" d="M415.776,235.102v-19.869H96.034v19.869c0,3.745,3.035,6.769,6.77,6.769h306.203
					C412.741,241.87,415.776,238.847,415.776,235.102z"/>
			</g>
		</g>
		<g>
			<circle fill="#C8EEFB" cx="255.906" cy="72.16" r="24.646"/>
			<g>
				<defs>
					<circle id="SVGID_1_" cx="255.906" cy="72.16" r="24.646"/>
				</defs>
				<clipPath id="SVGID_2_">
					<use xlink:href="#SVGID_1_"  overflow="visible"/>
				</clipPath>
				<path clip-path="url(#SVGID_2_)" fill="#5084DA" d="M265.43,66.535c0,5.26-4.265,9.524-9.524,9.524s-9.524-4.264-9.524-9.524
					c0-5.26,4.264-9.524,9.524-9.524S265.43,61.275,265.43,66.535z M270.278,106.416V89.774c0-6.325-5.128-11.452-11.452-11.452
					h-5.842c-6.324,0-11.452,5.127-11.452,11.452v16.642c0,1.753,1.421,3.174,3.174,3.174h22.398
					C268.857,109.59,270.278,108.169,270.278,106.416z"/>
			</g>
		</g>
		<path fill="#C8EEFB" d="M314.874,124.842H196.937c-5.386,0-9.752-4.366-9.752-9.752l0,0c0-5.386,4.366-9.752,9.752-9.752h117.937
			c5.386,0,9.752,4.366,9.752,9.752l0,0C324.626,120.476,320.26,124.842,314.874,124.842z"/>
		<path fill="#5084DA" d="M310.78,117.637H201.03c-1.406,0-2.546-1.141-2.546-2.547l0,0c0-1.407,1.14-2.547,2.546-2.547h109.75
			c1.406,0,2.547,1.14,2.547,2.547l0,0C313.327,116.497,312.187,117.637,310.78,117.637z"/>
		<path fill="#C8EEFB" d="M314.969,159.92H197.031c-5.386,0-9.752-4.365-9.752-9.752l0,0c0-5.386,4.366-9.752,9.752-9.752h117.938
			c5.386,0,9.752,4.366,9.752,9.752l0,0C324.721,155.555,320.354,159.92,314.969,159.92z"/>
		<path fill="#5084DA" d="M200.049,152.887L200.049,152.887c-1.407,0-2.547-1.141-2.547-2.547l0,0c0-1.406,1.14-2.547,2.547-2.547
			l0,0c1.406,0,2.546,1.141,2.546,2.547l0,0C202.596,151.746,201.456,152.887,200.049,152.887z M210.168,150.34L210.168,150.34
			c0-1.406-1.14-2.547-2.546-2.547l0,0c-1.407,0-2.547,1.141-2.547,2.547l0,0c0,1.406,1.14,2.547,2.547,2.547l0,0
			C209.028,152.887,210.168,151.746,210.168,150.34z M217.741,150.34L217.741,150.34c0-1.406-1.14-2.547-2.546-2.547l0,0
			c-1.407,0-2.547,1.141-2.547,2.547l0,0c0,1.406,1.14,2.547,2.547,2.547l0,0C216.601,152.887,217.741,151.746,217.741,150.34z
			 M225.314,150.34L225.314,150.34c0-1.406-1.14-2.547-2.547-2.547l0,0c-1.406,0-2.546,1.141-2.546,2.547l0,0
			c0,1.406,1.14,2.547,2.546,2.547l0,0C224.174,152.887,225.314,151.746,225.314,150.34z M232.887,150.34L232.887,150.34
			c0-1.406-1.14-2.547-2.547-2.547l0,0c-1.406,0-2.546,1.141-2.546,2.547l0,0c0,1.406,1.14,2.547,2.546,2.547l0,0
			C231.747,152.887,232.887,151.746,232.887,150.34z M240.459,150.34L240.459,150.34c0-1.406-1.14-2.547-2.547-2.547l0,0
			c-1.406,0-2.546,1.141-2.546,2.547l0,0c0,1.406,1.14,2.547,2.546,2.547l0,0C239.319,152.887,240.459,151.746,240.459,150.34z
			 M248.032,150.34L248.032,150.34c0-1.406-1.14-2.547-2.547-2.547l0,0c-1.406,0-2.546,1.141-2.546,2.547l0,0
			c0,1.406,1.14,2.547,2.546,2.547l0,0C246.892,152.887,248.032,151.746,248.032,150.34z"/>
		<path fill="#5084DA" d="M272.654,196.667h-33.498c-5.386,0-9.752-4.366-9.752-9.752l0,0c0-5.387,4.366-9.752,9.752-9.752h33.498
			c5.386,0,9.752,4.365,9.752,9.752l0,0C282.406,192.301,278.04,196.667,272.654,196.667z"/>
	</g>
	<path opacity="0.09" d="M379.552,241.331v-11.147c0-3.667-2.974-6.64-6.641-6.64h-0.579v-10.331
		c0-15.188-12.354-27.542-27.541-27.542s-27.542,12.354-27.542,27.542v10.331h-0.578c-3.668,0-6.641,2.973-6.641,6.64v11.147
		H379.552z M326.351,213.213c0-10.168,8.272-18.44,18.44-18.44s18.44,8.272,18.44,18.44v10.331h-36.881V213.213z"/>
	<path opacity="0.09" d="M392.566,136.862c-2.68-2.242-6.01-3.6-9.971-3.949c-0.012-0.367-0.011-0.728,0.006-1.196
		c2.038-0.327,3.781-2.109,4.795-4.514c2.749-2.648,4.617-5.927,3.715-10.059c-0.053-0.239-0.001-0.441,0.1-0.607
		c-1.183-2.116-3.363-3.133-5.782-5.324c-8.13-7.367-17.793,2.869-14.134,7.084c0.287,0.331,0.687,1.204,1.024,2.322
		c-0.007,0.025-0.017,0.043-0.022,0.07c-0.174,0.791-0.023,2.123,0.598,2.781c0.043,0.415,0.072,0.832,0.072,1.245
		c0.014,0.042,0.039,0.07,0.048,0.118c0.119,0.649,0.364,1.217,0.684,1.733c0.49,1.967,1.666,4.034,4.143,4.865
		c0.193,0.065,0.391,0.127,0.6,0.176c0.138,0.554,0.156,0.872,0.087,1.329c-2.398,0.267-4.569,1.017-6.505,2.177
		c-15.543,7.513-30.907,31.721-29.215,37.058c1.693,5.338,5.992,11.586,8.877,15.76l0.453-0.08c0.233,0.805,0.466,1.609,0.698,2.414
		c0.116,0.401,0.247,0.826,0.563,1.101c0.421,0.367,1.04,0.361,1.598,0.336c0.688-0.032,1.438-0.09,1.945-0.555
		c0.294-0.27,0.469-0.647,0.566-1.034c0.266-1.046-0.002-2.162-0.516-3.116l0.338-0.059c0,0-6.699-10.026-6.455-16.14
		c0.089-2.233,5.319-7.496,9.572-11.418c-0.098,1.361-0.151,2.747-0.151,4.153l-2.038,48.724c0,0,1.76,0.348,4.579,0.799
		l2.736,29.097h11.014l0.262-27.409c0.144,0.011,0.288,0.021,0.432,0.031c0.127,0.009,0.255,0.018,0.383,0.026
		c0.542,0.039,1.085,0.074,1.632,0.106c0.185,0.011,0.369,0.021,0.554,0.031c0.198,0.011,0.396,0.023,0.594,0.033l1.081,27.181
		h10.858l2.225-27.683c0.014-0.002,0.026-0.005,0.041-0.007c0.448-0.073,0.889-0.15,1.318-0.238c0.19-0.038,0.375-0.081,0.562-0.122
		c0.36-0.08,0.713-0.165,1.058-0.257c0.187-0.05,0.372-0.101,0.554-0.153c0.346-0.101,0.679-0.21,1.006-0.323
		c0.151-0.053,0.308-0.103,0.454-0.158c0.461-0.174,0.906-0.357,1.321-0.561l-0.223-52.702c0-1.138-0.035-2.242-0.099-3.319
		c-0.005-0.081-0.012-0.16-0.017-0.241c-0.064-1.005-0.157-1.982-0.276-2.933c-0.013-0.095-0.024-0.188-0.037-0.283
		c-0.012-0.085-0.021-0.172-0.033-0.258c2.148,0.426,4.943,0.939,8.6,1.557c2.376,0.401,4.688,0.199,6.898-0.427v-10.665
		C406.639,144.418,396.454,139.209,392.566,136.862z"/>
	<g>
		<circle opacity="0.3" fill="#94EBFF" cx="244.222" cy="149.358" r="16.939"/>
		<circle opacity="0.5" fill="#94EBFF" cx="244.221" cy="149.358" r="9.193"/>
	</g>
	<g>
		<path fill="#F9714E" d="M337.922,185.671c-15.188,0-27.542,12.354-27.542,27.542v26.484h55.083v-26.484
			C365.463,198.025,353.107,185.671,337.922,185.671z M319.48,230.596v-17.383c0-10.168,8.272-18.44,18.441-18.44
			c10.167,0,18.439,8.272,18.439,18.44v17.383H319.48z"/>
		<path opacity="0.4" fill="#F9714E" d="M337.922,191.114c-12.127,0-21.992,9.865-21.992,21.992v21.147h43.983v-21.147
			C359.913,200.979,350.047,191.114,337.922,191.114z M356.361,230.596H319.48v-17.383c0-10.168,8.272-18.44,18.441-18.44
			c10.167,0,18.439,8.272,18.439,18.44V230.596z"/>
		<path fill="#FFB255" d="M365.915,279.003h-55.988c-3.737,0-6.767-3.029-6.767-6.767V230.31c0-3.736,3.029-6.766,6.767-6.766
			h55.988c3.737,0,6.767,3.029,6.767,6.766v41.927C372.682,275.974,369.652,279.003,365.915,279.003z"/>
		<path fill="#F9714E" d="M348.028,247.432c0-5.582-4.525-10.107-10.107-10.107s-10.106,4.525-10.106,10.107
			c0,3.902,2.215,7.282,5.454,8.967v10.927h9.305v-10.927C345.813,254.714,348.028,251.334,348.028,247.432z"/>
		<path opacity="0.4" fill="#FFB255" d="M366.041,223.544H349.34c-3.645,11.331-9.318,22.052-16.545,31.441
			c-6.717,8.728-17.293,19.804-29.256,19.571c0.907,2.588,3.364,4.446,6.262,4.446h56.24c3.668,0,6.641-2.973,6.641-6.641v-42.179
			C372.682,226.517,369.709,223.544,366.041,223.544z"/>
	</g>
	<g>
		<path fill="#FFC2D3" d="M344.641,185.684c0.442,1.527,0.884,3.054,1.326,4.581c0.116,0.401,0.246,0.826,0.562,1.101
			c0.421,0.367,1.04,0.361,1.598,0.336c0.688-0.032,1.438-0.089,1.945-0.555c0.295-0.27,0.47-0.647,0.567-1.034
			c0.284-1.124-0.042-2.334-0.635-3.331c-0.593-0.998-1.433-1.82-2.263-2.631"/>
		<path fill="#FFC2D3" d="M426.96,132.956c0.536-2.131,1.266-4.213,2.176-6.213c0.474,0.602,0.42,1.449,0.344,2.211
			c0.461-1.117,1.347-2.052,2.436-2.574c0.131-0.062,0.282-0.119,0.415-0.064c0.149,0.063,0.211,0.237,0.251,0.394
			c0.414,1.635,0.215,3.417-0.55,4.92c-0.765,1.503-2.088,2.714-3.652,3.343"/>
		<path fill="#5084DA" d="M381.984,275.308c3.891,0.948,7.147,2.094,8.934,3.695h-14.997l0.287-3.48L381.984,275.308z"/>
		<path fill="#5084DA" d="M363.644,275.308c-3.89,0.948-7.147,2.094-8.934,3.695h14.997l-0.287-3.48L363.644,275.308z"/>
		<g>
			<g>
				<path fill="#2E2C84" d="M389.87,187.919l-7.071,88.001c0,0-2.47,0.604-3.324,0.604c-0.422,0-1.218-0.142-1.943-0.271
					c-0.819-0.167-1.534-0.334-1.534-0.334l-2.646-66.521h-3.32l-0.636,66.521c0,0-1.768,0.527-3.605,0.527
					c-1.791,0-3.91-0.527-3.91-0.527l-8.487-90.249L389.87,187.919z"/>
			</g>
		</g>
		<g opacity="0.3">
			<path opacity="0.5" fill="#2E2C84" d="M376.314,187.084l-12.455-0.768c-0.151,16.208,2.286,74.127,2.535,90.11
				c1.602-0.093,3-0.507,3-0.507l0.636-66.521h3.32l2.646,66.521c0,0,0.715,0.167,1.534,0.334c0.242,0.043,0.488,0.086,0.729,0.126
				C378.261,258.263,376.626,194.533,376.314,187.084z"/>
		</g>
		<g>
			<path fill="#001F64" d="M366.097,124.715c0.015,0.042,0.039,0.07,0.048,0.118c0.535,2.91,3.297,4.401,6.366,5.248
				c2.495,0.689,3.074,0.99,5.077-0.456c4.156-3,7.853-6.986,6.653-12.481c-0.052-0.239-0.001-0.441,0.1-0.607
				c-1.183-2.116-3.362-3.132-5.781-5.324c-8.131-7.367-17.794,2.869-14.135,7.084C365.019,118.98,366.101,121.957,366.097,124.715z
				"/>
		</g>
		<path fill="#8FC2FF" d="M393.827,159.948c0-16.729-6.924-27.131-20.184-27.131c-13.261,0-20.218,13.988-20.218,30.716
			l-2.038,48.724c0,0,30.912,6.131,42.662,0.394L393.827,159.948z"/>
		<path opacity="0.3" fill="#8FC2FF" d="M393.827,159.948c0-4.68-0.543-8.863-1.613-12.463
			c-1.176,18.204-2.772,66.672-29.868,66.478c10.071,1.259,24.492,2.208,31.704-1.313L393.827,159.948z"/>
		<path fill="#FFC2D3" d="M380.452,122.752c-0.496-3.292-3.429-6.593-7.011-4.882c-2.299,1.098-4.677,1.224-6.553,0.221
			c-0.055,0.634-0.133,1.558-0.203,2.528c-0.396-0.728-1.06-0.839-1.259,0.07c-0.213,0.974,0.051,2.784,1.098,3.124
			c-0.002,0.169-0.004,0.339-0.001,0.483c0.05,2.461,1.055,6.376,5.048,7.311c0.215,0.869,0.14,1.153-0.108,2.31
			c0.221,0.774,3.325,1.27,4.351,0.36c-0.088-1.067-0.116-1.58-0.082-2.56c2.361-0.379,4.333-2.707,5.225-5.699
			C384.519,124.021,381.97,120.377,380.452,122.752z"/>
		<path opacity="0.3" fill="#FFC2D3" d="M380.452,122.752c-0.195-1.299-0.774-2.594-1.619-3.587
			c0.099,5.721-2.337,11.038-7.861,12.267c0.193,0.065,0.39,0.127,0.6,0.176c0.215,0.869,0.14,1.153-0.108,2.31
			c0.221,0.773,3.325,1.27,4.351,0.36c-0.088-1.067-0.116-1.58-0.082-2.56c2.361-0.379,4.333-2.707,5.225-5.699
			C384.519,124.021,381.97,120.377,380.452,122.752z"/>
		<path fill="#8FC2FF" d="M365.152,135.113c-15.542,7.513-30.906,31.721-29.214,37.058c1.692,5.338,5.992,11.586,8.876,15.76
			l5.646-0.993c0,0-6.699-10.026-6.455-16.14c0.15-3.771,14.969-16.188,14.969-16.188L365.152,135.113z"/>
		<path fill="#8FC2FF" d="M384.302,135.965c2.434,1.749,22.74,13.917,33.907,3.171c8.064-7.761,8.877-9.26,8.877-9.26l2.767,4.898
			c0,0-12.62,22.271-27.888,19.695c-15.267-2.576-15.653-3.368-15.653-3.368L384.302,135.965z"/>
	</g>
	<g>
		<path opacity="0.09" d="M133.282,231.271c-5.813,1.68-10.731,5.477-13.88,10.491h41.253c-3.149-5.015-8.067-8.812-13.88-10.491
			V130.206h-13.493v1.648h-14.409v12.166h14.409v2.896h-14.409v12.165h14.409V231.271z"/>
		<g>
			<rect x="127.706" y="131.854" fill="#FFB255" width="17.283" height="12.166"/>
			<rect x="127.706" y="146.916" fill="#FFB255" width="17.283" height="12.165"/>
			<rect x="140.583" y="131.854" opacity="0.5" fill="#FFC87C" width="4.406" height="12.166"/>
			<rect x="140.583" y="146.916" opacity="0.5" fill="#FFC87C" width="4.406" height="12.165"/>
			<rect x="142.115" y="130.206" fill="#FFB255" width="13.493" height="105.739"/>
			<path opacity="0.5" fill="#FFC87C" d="M148.651,239.585h0.419c0.454,0,0.822-0.368,0.822-0.822V134.668
				c0-0.454-0.368-0.822-0.822-0.822h-0.419c-0.454,0-0.822,0.368-0.822,0.822v104.094
				C147.829,239.217,148.197,239.585,148.651,239.585z"/>
			<g>
				<path fill="#FFB255" d="M124.516,254.658c0-13.424,10.921-24.346,24.345-24.346s24.346,10.922,24.346,24.346
					s-10.922,24.345-24.346,24.345S124.516,268.082,124.516,254.658z M137.07,254.658c0,6.502,5.29,11.791,11.791,11.791
					c6.502,0,11.792-5.289,11.792-11.791s-5.29-11.792-11.792-11.792C142.359,242.866,137.07,248.156,137.07,254.658z"/>
			</g>
			<path opacity="0.5" fill="#FFC87C" d="M135.923,254.658c0,7.134,5.804,12.938,12.938,12.938c7.134,0,12.938-5.805,12.938-12.938
				s-5.805-12.938-12.938-12.938C141.727,241.72,135.923,247.524,135.923,254.658z M137.07,254.658
				c0-6.502,5.29-11.792,11.791-11.792c6.502,0,11.792,5.29,11.792,11.792s-5.29,11.791-11.792,11.791
				C142.359,266.449,137.07,261.16,137.07,254.658z"/>
		</g>
		<g>
			<path opacity="0.09" d="M237.396,152.887c-4.271,3.784-19.663,19.904-22.485,11.131c-2.234-6.945-6.919-16.502-9.663-19.708
				c-1.806-2.069-4.121-3.427-6.66-4.084v-1.11c2.67-0.013,6.845-0.534,6.845-10.153c0-2.908-0.277-4.824-0.776-6.079
				c0.797-0.802,0.744-2.382,0.181-3.31c-0.746-1.23-2.709-2.299-4.013-2.877c-3.087-1.368-7.119-2.004-10.081-0.087
				c-1.038-1.423-2.708-2.697-3.724-3.255c-1.261-0.691-2.628-1.282-4.066-1.31c-2.845-0.056-5.318,2.127-6.633,4.651
				c-1.066,2.046-1.568,4.432-1.128,6.697c0.439,2.265,1.89,4.372,3.979,5.351c0.614,0.288,1.296,0.479,1.968,0.387
				c0.892-0.122,1.643-0.721,2.266-1.37c1.52-1.58,1.779-3.466,2.895-5.176c0.169-0.26,0.386-0.436,0.621-0.581
				c-0.333,1.111-0.515,2.273-0.523,3.426c-0.026,3.318,1.14,6.543,2.675,9.486c0.407,0.781,0.866,1.574,1.589,2.076
				c0.696,0.482,2.493,0.954,3.226,0.482l-0.308,2.357c-2.101,0.184-4.229,0.793-6.258,1.827c0-0.002-0.001-0.007-0.001-0.007
				c-11.569,2.66-20.296,31.066-35.771,29.184v0.038c-1.881-0.524-3.947-0.674-4.056,1.169c-0.213,3.607,2.03,4.068,4.056,3.771
				v0.075c6.477,0,15.067-1.869,22.611-10.207c-4.162,23.463-2.5,54.188-2.5,54.188c1.116,0.161,2.226,0.307,3.334,0.443
				l1.896,21.497h9.854l0.023-20.511c1.989,0.081,3.965,0.122,5.923,0.108l0.23,20.402h11.428l2.208-21.396
				c2.024-0.285,4.031-0.626,6.012-1.042c-0.407-12.904-0.46-29.771-1.317-44.383c0.605,0.569,1.294,1.011,2.117,1.215
				c1.343,0.332,7.128,7.004,11.29,1.932c4.221-5.145,13.042-15.764,16.274-21.236C240.232,155.093,238.369,154.558,237.396,152.887
				z"/>
			<polygon fill="#F9ACC8" points="199.89,136.604 199.239,141.583 204.476,142.157 204.476,136.905 			"/>
			<path opacity="0.1" d="M159.534,173.021c0,0-6.932-3.416-7.133,0c-0.382,6.469,7.133,2.823,7.133,2.823V173.021z"/>
			<path fill="#FFC2D3" d="M160.515,172.04c0,0-6.931-3.416-7.133,0c-0.382,6.469,7.133,2.823,7.133,2.823V172.04z"/>
			<g>
				<path fill="#FFC2D3" d="M195.161,128.962c0,4.526,4.673,10.155,9.199,10.155c2.664,0,6.961-0.399,6.961-10.155
					c0-10.256-3.439-8.195-7.965-8.195S195.161,124.436,195.161,128.962z"/>
			</g>
			<path opacity="0.3" fill="#FFC2D3" d="M202.049,132.767c0.014-3.807,0.502-8.327,1.907-12.012
				c-0.198,0.007-0.398,0.012-0.601,0.012c-4.526,0-8.195,3.669-8.195,8.195c0,4.44,4.497,9.928,8.94,10.136
				C202.654,137.434,202.04,135.349,202.049,132.767z"/>
			<path fill="#FFB255" d="M209.591,123.478c-0.725,0.108-1.5-0.238-2.18,0.036c-1.089,0.439-1.162,2.1-2.167,2.71
				c-1.253,0.762-3.143-0.557-4.238,0.422c-0.646,0.577-0.57,1.593-0.503,2.461c0.177,2.288-0.078,4.609-0.748,6.801
				c-0.156,0.51,0.517,1.423,0.116,1.77c-0.668,0.579-2.597,0.072-3.321-0.434c-0.724-0.507-1.182-1.309-1.589-2.097
				c-1.535-2.973-2.701-6.23-2.675-9.583s1.396-6.815,4.103-8.754c2.981-2.135,7.152-1.487,10.323-0.068
				c1.304,0.584,3.267,1.664,4.013,2.907C211.458,120.87,211.343,123.217,209.591,123.478z"/>
			<path opacity="0.5" fill="#FFC87C" d="M208.727,117.823c-1.068,0.956-2.144,2.679-2.949,3.241
				c-1.112,0.778-2.445,0.935-3.71,1.323c-5.828,1.79-6.231,10.728-3.687,15.5c0.604,0.089,1.183,0.059,1.491-0.208
				c0.401-0.348-0.272-1.26-0.116-1.77c0.67-2.193,0.925-4.514,0.748-6.801c-0.067-0.868-0.143-1.884,0.503-2.461
				c1.096-0.979,2.985,0.34,4.238-0.422c1.004-0.611,1.078-2.271,2.167-2.71c0.681-0.274,1.455,0.072,2.18-0.036
				c1.751-0.261,1.866-2.608,1.134-3.828C210.319,118.973,209.551,118.349,208.727,117.823z"/>
			<path fill="#FFB255" d="M192.907,113.367c-1.261-0.699-2.628-1.295-4.065-1.324c-2.846-0.057-5.319,2.149-6.633,4.698
				c-1.066,2.067-1.568,4.478-1.128,6.766c0.439,2.288,1.89,4.417,3.979,5.406c0.614,0.291,1.297,0.484,1.968,0.391
				c0.892-0.124,1.643-0.729,2.266-1.384c1.52-1.597,1.779-3.502,2.895-5.229c0.903-1.397,2.883-0.823,4.206-1.735
				C199.75,118.643,194.972,114.512,192.907,113.367z"/>
			<path opacity="0.5" fill="#FFC87C" d="M194.422,119.533c-0.609-0.314-1.086-0.884-1.691-1.188
				c-0.863-0.94-5.29-1.432-6.213,4.731c-0.276,1.842-1.695,3.749-3.146,4.658c0.501,0.475,1.062,0.883,1.688,1.179
				c0.614,0.291,1.297,0.484,1.968,0.392c0.892-0.124,1.643-0.729,2.266-1.384c1.52-1.597,1.779-3.502,2.895-5.229
				c0.903-1.397,2.883-0.823,4.206-1.735c0.476-0.328,0.773-0.695,0.952-1.083C196.476,120.172,195.541,120.11,194.422,119.533z"/>
			<path fill="#F9714E" d="M191.502,275.308c3.89,0.948,7.147,2.094,8.934,3.695h-14.997l0.287-3.48L191.502,275.308z"/>
			<path fill="#F9714E" d="M204.946,275.308c3.89,0.948,7.147,2.094,8.934,3.695h-14.997l0.287-3.48L204.946,275.308z"/>
			<path opacity="0.1" d="M243.83,149.532c-0.083-0.043-0.225-0.116-0.314-0.141c-0.558-0.15-1.084,0.237-1.548,0.582
				c-0.818,0.609-2.364,1.862-3.042,2.625c0.002,0,0.004,0,0.005,0c-0.221,0.196-0.421,0.412-0.582,0.646
				c-0.522,0.758-0.672,1.821-0.181,2.6c0.381,0.605,1.077,1.058,1.793,1.053c1.043-0.007,2.451-0.56,3.149-1.375
				s0.642-1.726,0.136-2.673c-0.341-0.637-0.833-0.992-1.381-1.136c0.635-0.386,1.242-0.818,1.792-1.317
				c0.129-0.117,0.259-0.243,0.315-0.407C244.028,149.824,243.984,149.612,243.83,149.532z"/>
			<g>
				<g>
					<path fill="#FFC2D3" d="M243.472,151.701c0.506,0.947,0.563,1.857-0.135,2.673c-0.698,0.814-2.106,1.368-3.149,1.375
						c-0.715,0.004-1.412-0.447-1.793-1.053c-0.49-0.778-0.341-1.843,0.181-2.6C239.666,150.515,242.365,149.63,243.472,151.701z"/>
				</g>
				<g>
					<path fill="#FFC2D3" d="M241.708,150.808c0.781-0.434,1.513-0.959,2.175-1.56c0.128-0.117,0.259-0.243,0.315-0.407
						c0.056-0.165,0.012-0.377-0.142-0.457c-0.083-0.044-0.225-0.116-0.314-0.141c-0.558-0.15-1.084,0.237-1.548,0.582
						c-0.818,0.609-2.364,1.862-3.042,2.625C239.694,151.611,241.214,151.082,241.708,150.808z"/>
				</g>
			</g>
			<g>
				<path fill="#F9714E" d="M222.61,164.581c5.563-3.7,9.967-7.667,15.005-12.14c0.319-0.283,0.811-0.251,1.086,0.075
					c0.924,1.099,2.433,2.734,2.273,3.424c-0.088,0.384-0.361,0.692-0.625,0.984c-4.703,5.212-9.405,10.424-14.108,15.635
					c-0.927,1.027-1.869,2.067-3.035,2.81c-1.167,0.743-2.607,1.165-3.95,0.833c-2.263-0.56-3.53-2.89-4.763-4.869
					c-6.077-9.76-5.076-13.287-4.333-16.293c0.517-2.092,1.169-4.154,1.546-6.278c0.12-0.672-1.486-4.405-0.571-4.452
					c2.744,3.206,6.859,12.973,9.663,19.708C221.095,164.729,221.968,165.008,222.61,164.581z"/>
			</g>
			<g>
				<g>
					<path fill="#4B48B5" d="M178.72,195.782l7.071,80.191c0,0,2.47,0.551,3.325,0.551c0.421,0,1.218-0.129,1.943-0.246
						c0.819-0.152,1.533-0.305,1.533-0.305l0.071-60.617h5.847l0.685,60.617c0,0,1.768,0.48,3.605,0.48c1.791,0,3.91-0.48,3.91-0.48
						l8.487-82.24L178.72,195.782z"/>
				</g>
				<g>
					<path fill="#568EDB" d="M196.909,201.792c0.042,2.716-0.146,5.168,0.8,7.635c0.739,1.928,2.42,3.185,4.823,3.136
						c3.5-0.071,5.93-1.98,5.943-5.516c0.002-0.455,0.226-5.248,0.455-5.258C208.928,201.789,196.909,201.792,196.909,201.792z"/>
				</g>
				<g>
					<path fill="#568EDB" d="M180.306,201.796c0.041,2.716-0.078,5.167,0.592,7.638c0.523,1.932,1.701,3.196,3.374,3.158
						c2.438-0.055,3.797-2.766,4.114-5.488c0.053-0.449,0.133-5.247,0.292-5.255C188.678,201.849,180.306,201.796,180.306,201.796z"
						/>
				</g>
				<g>
					<path fill="#5E9CE4" d="M192.659,215.348c0.008,0,0.016-0.001,0.025-0.002c0.079-0.014,0.133-0.089,0.119-0.169
						c-0.938-5.449-0.294-15.878-0.287-15.982c0.002-0.042-0.013-0.083-0.042-0.112c-0.03-0.028-0.067-0.044-0.111-0.044
						c-0.095,0.005-9.437,0.439-13.356-0.552c-0.074-0.025-0.157,0.028-0.177,0.106c-0.019,0.077,0.027,0.157,0.106,0.177
						c3.67,0.929,12.007,0.622,13.279,0.568c-0.078,1.354-0.579,10.781,0.301,15.889
						C192.528,215.298,192.59,215.348,192.659,215.348z"/>
				</g>
				<g>
					<path fill="#5E9CE4" d="M193.83,215.348c0.004,0,0.008,0,0.013,0c0.081-0.008,0.141-0.079,0.134-0.158
						c-0.557-6.371-0.622-11.396-0.206-15.799c5.578-0.053,12.346-0.784,20.12-2.176c0.079-0.014,0.131-0.09,0.118-0.17
						c-0.014-0.079-0.081-0.13-0.17-0.118c-7.819,1.399-14.615,2.13-20.201,2.172c-0.075,0-0.137,0.058-0.144,0.133
						c-0.432,4.452-0.372,9.531,0.191,15.982C193.691,215.291,193.754,215.348,193.83,215.348z"/>
				</g>
				<g opacity="0.16">
					<path fill="#4E84D9" d="M191.059,276.278c0.819-0.152,1.533-0.305,1.533-0.305l0.071-60.617h0.491
						c-0.117-0.188-0.281-0.246-0.491-0.152c-1.147,0.515-1.686,1.312-2.4,2.248c-0.562,0.761-0.89,1.686-0.913,2.634
						C188.882,238.77,189.97,252.993,191.059,276.278z"/>
				</g>
				<g>
					<path fill="#5E9CE4" d="M206.111,274.29c-0.08-0.008-0.14-0.08-0.13-0.16l0.122-1.201c0.008-0.08,0.083-0.147,0.16-0.131
						c0.08,0.008,0.138,0.08,0.13,0.16l-0.122,1.201c-0.007,0.076-0.071,0.132-0.146,0.132
						C206.121,274.291,206.115,274.291,206.111,274.29z M206.472,270.758c-0.08-0.008-0.14-0.079-0.13-0.159l0.238-2.329
						c0.007-0.08,0.08-0.153,0.16-0.13c0.081,0.008,0.14,0.08,0.13,0.159l-0.237,2.329c-0.007,0.075-0.071,0.132-0.146,0.132
						C206.482,270.76,206.477,270.76,206.472,270.758z M206.947,266.1c-0.08-0.008-0.139-0.08-0.13-0.16l0.238-2.328
						c0.008-0.08,0.088-0.149,0.16-0.131c0.08,0.008,0.139,0.08,0.13,0.16l-0.237,2.329c-0.007,0.075-0.071,0.131-0.146,0.131
						C206.958,266.101,206.952,266.101,206.947,266.1z M207.423,261.442c-0.08-0.009-0.14-0.08-0.13-0.16l0.238-2.33
						c0.008-0.08,0.085-0.154,0.16-0.13c0.08,0.008,0.14,0.08,0.13,0.159l-0.237,2.33c-0.007,0.076-0.071,0.132-0.146,0.132
						C207.434,261.443,207.428,261.443,207.423,261.442z M207.9,256.783c-0.08-0.008-0.14-0.08-0.13-0.16l0.238-2.33
						c0.007-0.079,0.083-0.149,0.16-0.13c0.08,0.008,0.139,0.08,0.13,0.16l-0.238,2.33c-0.007,0.075-0.071,0.131-0.145,0.131
						C207.91,256.784,207.904,256.784,207.9,256.783z M208.375,252.125c-0.08-0.008-0.14-0.08-0.13-0.16l0.238-2.329
						c0.007-0.08,0.08-0.155,0.16-0.13c0.08,0.008,0.14,0.08,0.13,0.16l-0.238,2.328c-0.007,0.076-0.071,0.132-0.145,0.132
						C208.386,252.126,208.38,252.126,208.375,252.125z M208.851,247.466c-0.08-0.008-0.14-0.08-0.13-0.16l0.239-2.328
						c0.008-0.08,0.087-0.151,0.16-0.131c0.08,0.008,0.14,0.08,0.13,0.16l-0.239,2.329c-0.007,0.075-0.071,0.131-0.146,0.131
						C208.861,247.467,208.855,247.467,208.851,247.466z M209.328,242.808c-0.08-0.008-0.139-0.08-0.13-0.16l0.238-2.329
						c0.008-0.08,0.085-0.156,0.16-0.13c0.08,0.008,0.14,0.08,0.13,0.16l-0.238,2.328c-0.007,0.075-0.071,0.132-0.145,0.132
						C209.338,242.809,209.333,242.809,209.328,242.808z M209.804,238.149c-0.08-0.008-0.14-0.08-0.131-0.16l0.238-2.329
						c0.006-0.08,0.082-0.152,0.16-0.131c0.08,0.008,0.14,0.08,0.13,0.16l-0.238,2.33c-0.007,0.075-0.071,0.131-0.145,0.131
						C209.813,238.15,209.808,238.15,209.804,238.149z M210.279,233.491c-0.08-0.008-0.139-0.08-0.13-0.16l0.239-2.33
						c0.007-0.075,0.071-0.132,0.145-0.132c0.004,0,0.01,0,0.015,0.002c0.081,0.008,0.14,0.08,0.131,0.16l-0.239,2.329
						c-0.007,0.076-0.071,0.132-0.145,0.132C210.289,233.492,210.284,233.492,210.279,233.491z M210.756,228.832
						c-0.08-0.008-0.14-0.08-0.13-0.159l0.238-2.329c0.008-0.08,0.085-0.154,0.16-0.131c0.08,0.009,0.139,0.08,0.13,0.16
						l-0.237,2.329c-0.007,0.075-0.071,0.132-0.146,0.132C210.766,228.834,210.76,228.834,210.756,228.832z M211.231,224.174
						c-0.08-0.008-0.14-0.08-0.13-0.16l0.238-2.329c0.007-0.08,0.083-0.149,0.16-0.13c0.08,0.008,0.139,0.08,0.13,0.16l-0.237,2.328
						c-0.007,0.076-0.071,0.132-0.146,0.132C211.242,224.175,211.236,224.175,211.231,224.174z M211.707,219.517
						c-0.08-0.009-0.14-0.08-0.13-0.16l0.239-2.33c0.007-0.08,0.08-0.154,0.16-0.131c0.08,0.008,0.14,0.08,0.13,0.16l-0.239,2.33
						c-0.007,0.075-0.071,0.132-0.146,0.132C211.717,219.518,211.711,219.518,211.707,219.517z M212.184,214.857
						c-0.08-0.008-0.14-0.08-0.13-0.16l0.238-2.33c0.008-0.08,0.088-0.149,0.16-0.13c0.08,0.008,0.14,0.08,0.13,0.16l-0.238,2.33
						c-0.007,0.075-0.071,0.131-0.145,0.131C212.194,214.858,212.188,214.858,212.184,214.857z M212.659,210.198
						c-0.08-0.008-0.14-0.079-0.13-0.159l0.238-2.329c0.008-0.08,0.086-0.156,0.16-0.13c0.08,0.008,0.14,0.08,0.13,0.159
						l-0.238,2.329c-0.007,0.075-0.071,0.132-0.146,0.132C212.669,210.2,212.664,210.2,212.659,210.198z M213.135,205.54
						c-0.08-0.008-0.14-0.08-0.13-0.16l0.239-2.329c0.007-0.08,0.083-0.151,0.16-0.13c0.08,0.008,0.14,0.08,0.13,0.16l-0.239,2.329
						c-0.007,0.075-0.071,0.131-0.146,0.131C213.145,205.541,213.139,205.541,213.135,205.54z M213.612,200.882
						c-0.081-0.009-0.14-0.08-0.131-0.16l0.238-2.329c0.006-0.08,0.08-0.156,0.16-0.131c0.08,0.009,0.14,0.08,0.13,0.16
						l-0.238,2.329c-0.007,0.075-0.071,0.132-0.145,0.132C213.622,200.883,213.616,200.883,213.612,200.882z"/>
				</g>
			</g>
			<path fill="#F9714E" d="M193.209,141.649c-11.57,2.66-20.297,31.066-35.772,29.184v5.054c7.244,0,17.133-2.313,25.243-13.426
				C194.406,146.392,193.209,141.649,193.209,141.649z"/>
			<path opacity="0.3" fill="#F9714E" d="M193.209,141.649c-11.57,2.66-20.297,31.066-35.772,29.184v5.054
				c7.244,0,17.133-2.313,25.243-13.426C194.406,146.392,193.209,141.649,193.209,141.649z"/>
			<path fill="#F9714E" d="M211.136,144.31c7.105,8.142,6.512,49.424,7.321,75.061c-12.805,2.688-26.532,2.574-40.908,0.497
				c0,0-2.236-41.308,4.964-64.705C187.403,139.277,203.639,135.718,211.136,144.31z"/>
			<path opacity="0.3" fill="#F9714E" d="M187.348,198.754c-2.657-8.742-3.854-17.71-3.829-26.84
				c0.021-7.665,0.211-15.989,2.223-23.556c-1.32,1.94-2.429,4.203-3.229,6.804c-7.201,23.397-4.964,64.705-4.964,64.705
				c7.268,1.051,14.37,1.596,21.271,1.534C193.603,214.79,189.861,207.02,187.348,198.754z"/>
		</g>
	</g>
	<g>
		<path fill="#00AD9F" d="M74.309,131.417c1.044-0.056,8.164-5.329,10.905-7.106c0.771-0.5,1.555-1.024,2.094-1.769
			c0.539-0.745,0.79-1.766,0.398-2.597c-0.486-1.032-1.294-2.062-3.332-2.058c-3.547,0.008-4.778,1.173-6.503,2.957
			C72.167,126.742,74.309,131.417,74.309,131.417z"/>
		<path fill="#00AD9F" d="M106.227,152.687c3.1,1.393,6.412,2.781,9.782,2.35c1.308-0.167,2.735-0.761,3.17-2.005
			c0.372-1.063-0.141-2.282-0.984-3.029s-1.955-1.108-3.049-1.375c-4.127-1.008-9.919-0.45-14.005,0.71
			C101.141,149.337,104.377,151.854,106.227,152.687z"/>
		<path fill="#00AD9F" d="M126.643,106.9c-1.382-0.873-2.91-2.041-2.909-3.676c0.001-1.64,1.712-2.89,3.352-2.898
			c1.64-0.008,3.162,0.886,4.394,1.968c5.216,4.579,4.566,9.8,4.566,9.8S128.183,107.873,126.643,106.9z"/>
		<path fill="#00AD9F" d="M130.755,92.933c-1.213-0.521-2.465-1.15-3.177-2.263c-0.347-0.542-0.543-1.227-0.33-1.833
			c0.357-1.015,0.993-1.926,3.55-1.462c8.096,1.469,9.86,7.014,9.86,7.014S132.905,93.857,130.755,92.933z"/>
		<path fill="#00AD9F" d="M154.476,105.198c3.248-0.28,6.601-1.897,8.648-4.435c0.772-0.958,1.48-2.014,1.738-3.217
			s-0.017-2.583-0.949-3.386c-1.137-0.979-2.94-0.823-4.193,0.004c-1.253,0.827-2.057,2.175-2.708,3.527
			C156.144,99.492,154.476,105.198,154.476,105.198z"/>
		<path fill="none" stroke="#086356" stroke-linecap="round" stroke-linejoin="round" stroke-miterlimit="10" d="M96.488,223.615
			c-7.864-6.933-15.727-13.864-23.591-20.796c-4.191-3.694-8.469-7.497-11.124-12.413c-5.706-10.567-2.417-24.298,5.289-33.51
			s18.993-14.65,30.331-18.609c11.339-3.958,23.141-6.736,33.95-11.971c6.779-3.283,13.594-8.174,15.453-15.473
			c1.119-4.39,0.178-9.26-2.494-12.918c-2.672-3.659-7.025-6.035-11.548-6.305"/>
		<path fill="none" stroke="#086356" stroke-linecap="round" stroke-linejoin="round" stroke-miterlimit="10" d="M159.97,97.66
			c-2.148,6.598-10.518,10.612-14.337,16.327"/>
		<path fill="none" stroke="#086356" stroke-linecap="round" stroke-linejoin="round" stroke-miterlimit="10" d="M129.921,105.248
			c1.648,1.74,3.622,3.179,5.06,5.096c3.039,4.052,3.292,10.634-1.203,14.718"/>
		<path fill="none" stroke="#086356" stroke-linecap="round" stroke-linejoin="round" stroke-miterlimit="10" d="M87.576,142.185
			c6.937,5.346,16.057,8.909,24.809,9.249"/>
		<path fill="none" stroke="#086356" stroke-linecap="round" stroke-linejoin="round" stroke-miterlimit="10" d="M71.693,151.922
			c-3.195-9.419,0.286-20.703,8.232-26.686"/>
	</g>
	<g>
		<path fill="#00AD9F" d="M346.622,22.536c-0.376-1.166-0.356-2.598,0.502-3.469c0.682-0.691,1.824-1,2.711-0.609
			c6.878,3.034,6.134,13.796,6.134,13.796S349.445,31.309,346.622,22.536z"/>
		<path fill="#00AD9F" d="M346.455,42.695c-4.449,8.065,11.364,7.45,17.066,2.7C363.521,45.396,350.285,35.753,346.455,42.695z"/>
		<path fill="#00AD9F" d="M366.448,23.147c-1.073-1.476-1.455-3.675-0.286-5.076c0.87-1.043,2.387-1.366,3.719-1.108
			c1.332,0.257,3.328,1.494,4.178,2.554c5.204,6.494,2.759,12.849,2.759,12.849S368.207,25.564,366.448,23.147z"/>
		<path fill="#00AD9F" d="M429.246,43.118c-0.385-1.256-0.294-2.789,0.68-3.669c0.614-0.555,1.488-0.756,2.313-0.694
			c0.825,0.063,1.613,0.364,2.366,0.708c1.612,0.74,2.866,2.031,3.642,3.631c1.955,4.041,0.627,9.042,0.627,9.042
			S430.203,46.249,429.246,43.118z"/>
		<path fill="#00AD9F" d="M409.492,57.918c-2.796-2.463-7.078-3.192-10.485-1.693c-0.866,0.381-1.688,0.919-2.242,1.688
			c-1.249,1.733-0.812,4.266,0.484,5.964c1.296,1.697,3.262,2.73,5.203,3.614c3.52,1.602,8.98,1.923,12.726,2.881
			C415.178,70.373,415.162,62.914,409.492,57.918z"/>
		<path fill="none" stroke="#086356" stroke-linecap="round" stroke-linejoin="round" stroke-miterlimit="10" d="M351.551,24.266
			c2.326,7.638,8.91,13.402,16.241,16.52c7.33,3.118,15.404,3.941,23.35,4.457c7.946,0.516,15.986,0.772,23.671,2.865
			c7.488,2.039,14.945,6.286,18.159,13.37c3.912,8.623,0.448,18.934-5.043,26.641c-5.492,7.707-12.887,13.919-18.2,21.751
			c-2.439,3.597-4.477,7.807-3.983,12.129c0.657,5.762,5.497,10.005,9.994,13.649"/>
		<path fill="none" stroke="#086356" stroke-linecap="round" stroke-linejoin="round" stroke-miterlimit="10" d="M369.865,21.464
			c5.266,5.843,9.475,14.981,10.499,22.79"/>
		<path fill="none" stroke="#086356" stroke-linecap="round" stroke-linejoin="round" stroke-miterlimit="10" d="M352.16,44.033
			c3.011,0.801,6.062,1.608,9.177,1.616c3.114,0.008,6.723-1.723,8.962-3.894"/>
		<path fill="none" stroke="#086356" stroke-linecap="round" stroke-linejoin="round" stroke-miterlimit="10" d="M434.397,43.593
			c2.821,2.732,4.535,6.582,4.683,10.512c0.146,3.931-2.027,8.694-4.637,11.63"/>
		<path fill="none" stroke="#086356" stroke-linecap="round" stroke-linejoin="round" stroke-miterlimit="10" d="M404.885,61.431
			c5.633,5.203,10.538,9.409,16.802,13.828c2.859,2.017,8.536,4.603,11.055,3.937"/>
	</g>
</g>
</svg>
